<?xml version="1.0" encoding="UTF-8" standalone="no"?>
<!DOCTYPE svg PUBLIC "-//W3C//DTD SVG 1.1//EN" "http://www.w3.org/Graphics/SVG/1.1/DTD/svg11.dtd">
<svg xmlns="http://www.w3.org/2000/svg" version="1.1" xmlns:xlink="http://www.w3.org/1999/xlink" viewBox="0 0 512 288">

<!-- Copyright 2015 Isaac Gouy -->
<!-- http://benchmarksgame.alioth.debian.org/license.html -->

<defs>
<linearGradient id="grade" x1="0" y1="0" x2="0" y2="1">
<stop offset="0" style="stop-color: white" stop-opacity="0.6"/>
<stop offset="1" style="stop-color: white" stop-opacity="0.8"/>
</linearGradient>
<mask id="fade">
<rect x="58" y="24" width="452" height="288" fill="url(#grade)"  />
</mask>
<g id="backgroundText" style="text-anchor: end; font-family: Ubuntu,Verdana,sans-serif; font-size: 1em;">
<text x="16" y="0" transform="rotate(270,16,0)" xml:space="preserve">   C gcc   C gcc   C gcc   C gcc   C gcc   C gcc   C gcc</text>
<text x="42" y="0" transform="rotate(270,42,0)" xml:space="preserve">Rust   Rust   Rust   Rust   Rust   Rust   Rust   Rust   Rust</text>
<text x="68" y="0" transform="rotate(270,68,0)" xml:space="preserve">   C++ g++   C++ g++   C++ g++   C++ g++   C++ g++   C++ g++</text>
<text x="94" y="0" transform="rotate(270,94,0)" xml:space="preserve">da 2005 GNAT   Ada 2005 GNAT   Ada 2005 GNAT   Ada 2005 GNAT</text>
<text x="120" y="0" transform="rotate(270,120,0)" xml:space="preserve">ortran Intel   Fortran Intel   Fortran Intel   Fortran Intel</text>
<text x="146" y="0" transform="rotate(270,146,0)" xml:space="preserve">Java   Java   Java   Java   Java   Java   Java   Java   Java</text>
<text x="172" y="0" transform="rotate(270,172,0)" xml:space="preserve">   Swift   Swift   Swift   Swift   Swift   Swift   Swift</text>
<text x="198" y="0" transform="rotate(270,198,0)" xml:space="preserve">   Go   Go   Go   Go   Go   Go   Go   Go   Go   Go   Go   Go</text>
<text x="224" y="0" transform="rotate(270,224,0)" xml:space="preserve">   Scala   Scala   Scala   Scala   Scala   Scala   Scala</text>
<text x="250" y="0" transform="rotate(270,250,0)" xml:space="preserve">   </text>
<text style="stroke:black;fill:#990000;font-size:125%;" x="276" y="0" transform="rotate(270,276,0)" xml:space="preserve">   Haskell GHC   Haskell GHC   Haskell GHC   Haskell GHC</text>
<text x="302" y="0" transform="rotate(270,302,0)" xml:space="preserve">   OCaml   OCaml   OCaml   OCaml   OCaml   OCaml   OCaml</text>
<text x="328" y="0" transform="rotate(270,328,0)" xml:space="preserve">   Clojure   Clojure   Clojure   Clojure   Clojure   Clojure</text>
<text x="354" y="0" transform="rotate(270,354,0)" xml:space="preserve">   Lisp SBCL   Lisp SBCL   Lisp SBCL   Lisp SBCL   Lisp SBCL</text>
<text x="380" y="0" transform="rotate(270,380,0)" xml:space="preserve">   C# Mono   C# Mono   C# Mono   C# Mono   C# Mono   C# Mono</text>
<text x="406" y="0" transform="rotate(270,406,0)" xml:space="preserve">   F# Mono   F# Mono   F# Mono   F# Mono   F# Mono   F# Mono</text>
<text x="432" y="0" transform="rotate(270,432,0)" xml:space="preserve">Pascal Free Pascal   Pascal Free Pascal   Pascal Free Pascal</text>
</g>
</defs>
<use x="60" y="27" xlink:href="#backgroundText"/>
<rect x="58" y="24" width="452" height="288" fill="white" mask="url(#fade)" />
<rect x="58" y="264" width="452" height="288" style="fill: white; stroke: white;" />
<g style="stroke: #ccc;" >
<line x1="51" y1="264" x2="511" y2="264" />
<line x1="51" y1="221.57" x2="511" y2="221.57" />
<line x1="51" y1="201.85" x2="511" y2="201.85" />
<line x1="51" y1="175.08" x2="511" y2="175.08" />
<line x1="51" y1="132.65" x2="511" y2="132.65" />
<line x1="51" y1="112.92" x2="511" y2="112.92" />
<line x1="51" y1="86.15" x2="511" y2="86.15" />
<line x1="51" y1="43.73" x2="511" y2="43.73" />
<line x1="51" y1="24" x2="511" y2="24" />
</g>
<g style="text-anchor: end; font-family: Ubuntu,Verdana,sans-serif; font-size: 0.9em;" >
<text x="51" y="262" >1</text>
<text x="51" y="219.57" >3</text>
<text x="51" y="199.85" >5</text>
<text x="51" y="173.08" >10</text>
<text x="51" y="130.65" >30</text>
<text x="51" y="110.92" >50</text>
<text x="51" y="84.15" >100</text>
<text x="51" y="41.73" >300</text>
<text x="51" y="22" ></text>
</g>
<g style="fill: black; stroke: black;">
<rect x="72" y="258.16" width="1" height="5.84" />
<rect x="98" y="240.16" width="1" height="23.6" />
<rect x="124" y="230.76" width="1" height="33.24" />
<rect x="150" y="225.34" width="1" height="38.27" />
<rect x="176" y="217.25" width="1" height="46.75" />
<rect x="202" y="213.3" width="1" height="50.7" />
<rect x="228" y="196.34" width="1" height="67.66" />
<rect x="254" y="216.19" width="1" height="45.73" />
<rect x="280" y="199.84" width="1" height="63.16" />
<rect x="306" y="708.61" width="1" height="0" />
<rect x="332" y="211" width="1" height="33.93" />
<rect x="358" y="185.79" width="1" height="63.9" />
<rect x="384" y="199.86" width="1" height="52.63" />
<rect x="410" y="177.23" width="1" height="74.5" />
<rect x="436" y="181.61" width="1" height="59.76" />
<rect x="462" y="166.24" width="1" height="69.46" />
<rect x="488" y="168.81" width="1" height="95.15" />
</g>
<g style="fill: white; stroke: black;">
<rect x="62" y="261.56" width="20" height="2.44" />
<rect x="88" y="247.82" width="20" height="10.98" />
<rect x="114" y="246.05" width="20" height="15.12" />
<rect x="140" y="239.81" width="20" height="13.94" />
<rect x="166" y="237.08" width="20" height="22.91" />
<rect x="192" y="228.91" width="20" height="15.78" />
<rect x="218" y="212.91" width="20" height="39.66" />
<rect x="244" y="233.94" width="20" height="19.02" />
<rect x="270" y="220.03" width="20" height="23.64" />
<rect x="296" y="708.61" width="20" height="0" />
<rect x="322" y="224.02" width="20" height="12.02" />
<rect x="348" y="208.11" width="20" height="33.76" />
<rect x="374" y="209.45" width="20" height="20.72" />
<rect x="400" y="199.45" width="20" height="38.71" />
<rect x="426" y="203.38" width="20" height="27.13" />
<rect x="452" y="191.72" width="20" height="37.65" />
<rect x="478" y="183.03" width="20" height="47.1" />
</g>
<g style="fill: black; stroke: black;">
<line x1="67.5" y1="264" x2="77" y2="264" />
<line x1="67.5" y1="258.16" x2="77" y2="258.16" />
<line x1="67.5" y1="240.37" x2="77" y2="240.37" />
<rect x="72" y="240.37" width="1" height="5" />
</g>
<g style="fill: black; stroke: black;">
<rect x="63" y="263" width="18" height="1" />
</g>
<g style="fill: black; stroke: black;">
<line x1="93.5" y1="263.76" x2="103" y2="263.76" />
<line x1="93.5" y1="240.16" x2="103" y2="240.16" />
</g>
<g style="fill: black; stroke: black;">
<rect x="89" y="249.87" width="18" height="1" />
</g>
<g style="fill: black; stroke: black;">
<line x1="119.5" y1="264" x2="129" y2="264" />
<line x1="119.5" y1="230.76" x2="129" y2="230.76" />
<line x1="119.5" y1="220.33" x2="129" y2="220.33" />
<rect x="124" y="220.33" width="1" height="5" />
</g>
<g style="fill: black; stroke: black;">
<rect x="115" y="253.24" width="18" height="1" />
</g>
<g style="fill: black; stroke: black;">
<line x1="145.5" y1="263.61" x2="155" y2="263.61" />
<line x1="145.5" y1="225.34" x2="155" y2="225.34" />
<line x1="145.5" y1="221.38" x2="155" y2="221.38" />
<rect x="150" y="221.38" width="1" height="5" />
</g>
<g style="fill: black; stroke: black;">
<rect x="141" y="246.13" width="18" height="1" />
</g>
<g style="fill: black; stroke: black;">
<line x1="171.5" y1="264" x2="181" y2="264" />
<line x1="171.5" y1="217.25" x2="181" y2="217.25" />
<line x1="171.5" y1="208.97" x2="181" y2="208.97" />
<rect x="176" y="208.97" width="1" height="5" />
</g>
<g style="fill: black; stroke: black;">
<rect x="167" y="240.17" width="18" height="1" />
</g>
<g style="fill: black; stroke: black;">
<line x1="197.5" y1="264" x2="207" y2="264" />
<line x1="197.5" y1="213.3" x2="207" y2="213.3" />
</g>
<g style="fill: black; stroke: black;">
<rect x="193" y="238.2" width="18" height="1" />
</g>
<g style="fill: black; stroke: black;">
<line x1="223.5" y1="264" x2="233" y2="264" />
<line x1="223.5" y1="196.34" x2="233" y2="196.34" />
</g>
<g style="fill: black; stroke: black;">
<rect x="219" y="234.43" width="18" height="1" />
</g>
<g style="fill: black; stroke: black;">
<line x1="249.5" y1="261.91" x2="259" y2="261.91" />
<line x1="249.5" y1="216.19" x2="259" y2="216.19" />
<line x1="249.5" y1="160.14" x2="259" y2="160.14" />
<rect x="254" y="160.14" width="1" height="5" />
</g>
<g style="fill: black; stroke: black;">
<rect x="245" y="240.48" width="18" height="1" />
</g>
<g style="fill: black; stroke: black;">
<line x1="275.5" y1="263" x2="285" y2="263" />
<line x1="275.5" y1="199.84" x2="285" y2="199.84" />
<line x1="275.5" y1="198.58" x2="285" y2="198.58" />
<rect x="280" y="198.58" width="1" height="5" />
</g>
<g style="fill: black; stroke: black;">
<rect x="271" y="232.12" width="18" height="1" />
</g>
<g style="fill: black; stroke: black;">
<line x1="301.5" y1="708.61" x2="311" y2="708.61" />
<line x1="301.5" y1="708.61" x2="311" y2="708.61" />
</g>
<g style="fill: black; stroke: black;">
<rect x="297" y="707.61" width="18" height="1" />
</g>
<g style="fill: black; stroke: black;">
<line x1="327.5" y1="244.93" x2="337" y2="244.93" />
<line x1="327.5" y1="211" x2="337" y2="211" />
<line x1="327.5" y1="193.77" x2="337" y2="193.77" />
<rect x="332" y="193.77" width="1" height="5" />
</g>
<g style="fill: black; stroke: black;">
<rect x="323" y="226.11" width="18" height="1" />
</g>
<g style="fill: black; stroke: black;">
<line x1="353.5" y1="249.69" x2="363" y2="249.69" />
<line x1="353.5" y1="185.79" x2="363" y2="185.79" />
</g>
<g style="fill: black; stroke: black;">
<rect x="349" y="224.32" width="18" height="1" />
</g>
<g style="fill: black; stroke: black;">
<line x1="379.5" y1="252.49" x2="389" y2="252.49" />
<line x1="379.5" y1="199.86" x2="389" y2="199.86" />
</g>
<g style="fill: black; stroke: black;">
<rect x="375" y="218.75" width="18" height="1" />
</g>
<g style="fill: black; stroke: black;">
<line x1="405.5" y1="251.72" x2="415" y2="251.72" />
<line x1="405.5" y1="177.23" x2="415" y2="177.23" />
</g>
<g style="fill: black; stroke: black;">
<rect x="401" y="209.49" width="18" height="1" />
</g>
<g style="fill: black; stroke: black;">
<line x1="431.5" y1="241.37" x2="441" y2="241.37" />
<line x1="431.5" y1="181.61" x2="441" y2="181.61" />
<line x1="431.5" y1="153.38" x2="441" y2="153.38" />
<rect x="436" y="153.38" width="1" height="5" />
</g>
<g style="fill: black; stroke: black;">
<rect x="427" y="221.38" width="18" height="1" />
</g>
<g style="fill: black; stroke: black;">
<line x1="457.5" y1="235.7" x2="467" y2="235.7" />
<line x1="457.5" y1="166.24" x2="467" y2="166.24" />
<line x1="457.5" y1="162.73" x2="467" y2="162.73" />
<rect x="462" y="162.73" width="1" height="5" />
</g>
<g style="fill: black; stroke: black;">
<rect x="453" y="217.97" width="18" height="1" />
</g>
<g style="fill: black; stroke: black;">
<line x1="483.5" y1="263.96" x2="493" y2="263.96" />
<line x1="483.5" y1="168.81" x2="493" y2="168.81" />
</g>
<g style="fill: black; stroke: black;">
<rect x="479" y="204.57" width="18" height="1" />
</g>
<g style="text-anchor: end; font-family: Ubuntu,Verdana,sans-serif; font-size: 0.9em;" >
<text x="512" y="282" >13 Apr 2016 u64q</text>
<text x="58" y="282" style="text-anchor: start;" >benchmarks game</text>
</g>
<text x="16" y="144" transform="rotate(270,16,144)" style="text-anchor: middle; font-family: Ubuntu,Verdana,sans-serif; font-size: 0.9em;" >program time / fastest program time</text>
<text x="285" y="18" style="text-anchor: middle; font-family: Ubuntu,Verdana,sans-serif; font-size: 1.2em;" >How many times slower?</text>
<g style="stroke: #333;">
<line x1="58" y1="24" x2="58" y2="264" />
<line x1="511" y1="24" x2="511" y2="264" />
<line x1="58" y1="264" x2="511" y2="264" />
</g>
</svg>

